<svg height="512" viewBox="0 0 64 64" width="512" xmlns="http://www.w3.org/2000/svg"><g id="encounter-social-distance-meeting-conference"><path d="m59 14h-1v-7a3.009 3.009 0 0 0 -3-3h-11a3.009 3.009 0 0 0 -3 3v7h-18v-7a3.009 3.009 0 0 0 -3-3h-11a3.009 3.009 0 0 0 -3 3v7h-1a3.009 3.009 0 0 0 -3 3v32a3.009 3.009 0 0 0 3 3h22.82l-.67 4h-6.15a1.014 1.014 0 0 0 -.8.4l-3 4a1 1 0 0 0 -.09 1.05.977.977 0 0 0 .89.55h28a.977.977 0 0 0 .89-.55 1 1 0 0 0 -.09-1.05l-3-4a1.014 1.014 0 0 0 -.8-.4h-6.15l-.67-4h22.82a3.009 3.009 0 0 0 3-3v-32a3.009 3.009 0 0 0 -3-3zm-16-7a1 1 0 0 1 1-1h11a1 1 0 0 1 1 1v8a1 1 0 0 1 -1 1h-2a.984.984 0 0 0 -.6.2l-2.4 1.8v-1a1 1 0 0 0 -1-1h-5a1 1 0 0 1 -1-1zm-35 0a1 1 0 0 1 1-1h11a1 1 0 0 1 1 1v8a1 1 0 0 1 -1 1h-5a1 1 0 0 0 -1 1v1l-2.4-1.8a.984.984 0 0 0 -.6-.2h-2a1 1 0 0 1 -1-1zm-4 10a1 1 0 0 1 1-1h1.18a3.01 3.01 0 0 0 2.82 2h1.67l3.73 2.8a.99.99 0 0 0 1.05.09.988.988 0 0 0 .55-.89v-2h4a3.01 3.01 0 0 0 2.82-2h8.18v28h-3v-1a5 5 0 0 0 -5-5h-2v-2.42a5.014 5.014 0 0 0 3-4.58v-4a5 5 0 0 0 -5-5h-2a5 5 0 0 0 -5 5v4a5.014 5.014 0 0 0 3 4.58v2.42h-2a5 5 0 0 0 -5 5v1h-4zm22 26v1h-3.61l1.3-3.91a2.992 2.992 0 0 1 2.31 2.91zm-10-14a1.185 1.185 0 0 0 .32-.05l2.41-.81.56.57a1.033 1.033 0 0 0 .71.29h2v2a3.009 3.009 0 0 1 -3 3h-2a3.009 3.009 0 0 1 -3-3v-2zm-2-2a3.009 3.009 0 0 1 3-3h2a3.009 3.009 0 0 1 3 3h-1.59l-.7-.71a1.028 1.028 0 0 0 -1.03-.24l-2.84.95zm3 9h2v2h-2zm4.61 4-1.33 4h-4.56l-1.33-4zm-8 4h-3.61v-1a2.992 2.992 0 0 1 2.31-2.91zm28.89 14 1.5 2h-24l1.5-2zm-13.32-2 .67-4h4.3l.67 4zm30.82-7a1 1 0 0 1 -1 1h-54a1 1 0 0 1 -1-1v-3h56zm-22-5v-1a2.992 2.992 0 0 1 2.31-2.91l1.3 3.91zm6-15a1.185 1.185 0 0 0 .32-.05l2.41-.81.56.57a1.033 1.033 0 0 0 .71.29h2v2a3.009 3.009 0 0 1 -3 3h-2a3.009 3.009 0 0 1 -3-3v-2zm-2-2a3.009 3.009 0 0 1 3-3h2a3.009 3.009 0 0 1 3 3h-1.59l-.7-.71a1.028 1.028 0 0 0 -1.03-.24l-2.84.95zm3 9h2v2h-2zm4.61 4-1.33 4h-4.56l-1.33-4zm.78 4 1.3-3.91a2.992 2.992 0 0 1 2.31 2.91v1zm9.61 0h-4v-1a5 5 0 0 0 -5-5h-2v-2.42a5.014 5.014 0 0 0 3-4.58v-4a5 5 0 0 0 -5-5h-2a5 5 0 0 0 -5 5v4a5.014 5.014 0 0 0 3 4.58v2.42h-2a5 5 0 0 0 -5 5v1h-3v-28h8.18a3.01 3.01 0 0 0 2.82 2h4v2a.988.988 0 0 0 .55.89.99.99 0 0 0 1.05-.09l3.73-2.8h1.67a3.01 3.01 0 0 0 2.82-2h1.18a1 1 0 0 1 1 1z"/><path d="m45 8h2v2h-2z"/><path d="m49 8h5v2h-5z"/><path d="m45 12h9v2h-9z"/><path d="m10 8h2v2h-2z"/><path d="m14 8h5v2h-5z"/><path d="m10 12h9v2h-9z"/></g></svg>